<?xml version="1.0" encoding="UTF-8" standalone="no"?>
<!-- Created with Inkscape (http://www.inkscape.org/) -->

<svg
   id="svg2"
   sodipodi:docname="tic-tac-toe-brown.svg"
   viewBox="0 0 178.31574 168.18463"
   version="1.1"
   inkscape:version="1.3.2 (091e20e, 2023-11-25, custom)"
   width="178.31573"
   height="168.18463"
   xmlns:inkscape="http://www.inkscape.org/namespaces/inkscape"
   xmlns:sodipodi="http://sodipodi.sourceforge.net/DTD/sodipodi-0.dtd"
   xmlns="http://www.w3.org/2000/svg"
   xmlns:svg="http://www.w3.org/2000/svg"
   xmlns:rdf="http://www.w3.org/1999/02/22-rdf-syntax-ns#"
   xmlns:cc="http://creativecommons.org/ns#"
   xmlns:dc="http://purl.org/dc/elements/1.1/">
  <defs
     id="defs1" />
  <title
     id="title3697">Tic Tac Toe</title>
  <sodipodi:namedview
     id="base"
     bordercolor="#666666"
     inkscape:pageshadow="2"
     inkscape:window-y="-8"
     pagecolor="#ffffff"
     inkscape:window-height="1017"
     inkscape:window-maximized="1"
     inkscape:zoom="0.98994949"
     inkscape:window-x="-8"
     showgrid="false"
     borderopacity="1.0"
     inkscape:current-layer="layer1"
     inkscape:cx="237.38585"
     inkscape:cy="7.5761441"
     inkscape:window-width="1920"
     inkscape:pageopacity="0.0"
     inkscape:document-units="px"
     inkscape:showpageshadow="2"
     inkscape:pagecheckerboard="0"
     inkscape:deskcolor="#d1d1d1" />
  <g
     id="layer1"
     inkscape:label="Layer 1"
     inkscape:groupmode="layer"
     transform="translate(-137.89,-361.6249)">
    <g
       id="g3682"
       style="stroke:#331a00;stroke-opacity:1"
       inkscape:label="g3682"
       transform="matrix(1.0000026,0,0,0.99940079,-3.5728764e-4,0.21705846)">
      <path
         id="path2816"
         style="fill:none;stroke:#804200;stroke-width:1.94372;stroke-opacity:1"
         d="M 200.01,364.85 V 529.91" />
      <path
         id="path2816-1"
         style="fill:none;stroke:#804200;stroke-width:1.94364;stroke-opacity:1"
         d="M 249.51,363.43 V 528.48" />
      <path
         id="path2816-1-7"
         style="fill:none;stroke:#804200;stroke-width:2;stroke-opacity:1"
         d="M 137.89,414.96 H 312.65" />
      <path
         id="path2816-1-7-4"
         style="fill:none;stroke:#804200;stroke-width:2;stroke-opacity:1"
         d="M 138.9,469.5 H 313.66" />
      <path
         id="path3662"
         style="color:#000000;fill:#000000;stroke:#331a00;stroke-width:2;stroke-opacity:1"
         d="m 266.05,362.85 c 17.317,13.619 31.373,30.861 48.62,44.548 -5.6697,5.2468 -10.334,-5.7541 -15.167,-8.2324 -11.955,-11.701 -23.414,-24.064 -36.804,-34.17 z" />
      <path
         id="path3664"
         style="color:#000000;fill:#000000;stroke:#331a00;stroke-width:2;stroke-opacity:1"
         d="m 305.31,367.12 c -9.2132,6.0873 -16.95,14.285 -24.043,22.682 -4.2967,4.0039 -3.9316,12.117 -10.264,13.645 3.6257,-8.7506 9.2335,-16.467 16.395,-22.675 5.3461,-5.1794 10.588,-11.359 17.913,-13.652 z" />
      <path
         id="path3666"
         style="color:#000000;fill:#000000;stroke:#331a00;stroke-width:2;stroke-opacity:1"
         d="m 172.42,372.69 c -2.674,-0.49567 -11.991,2.1652 -10.445,1.917 2.4912,-1.9686 -6.2231,6.5825 -4.5363,10.505 -1.1832,10.746 10.21,16.955 19.349,18.04 2.3204,0.20924 8.5927,-2.755 3.2503,-0.15573 5.7404,-7.2532 4.2259,-19.119 -1.8802,-25.894 -3.8397,-2.3743 -11.256,-7.701 -3.2584,-6.8878 9.01,4.1554 14.036,14.755 11.639,24.365 -0.30497,10.69 -15.099,13.553 -22.468,7.754 -9.5682,-3.1538 -13.041,-15.405 -7.6938,-23.579 3.3869,-6.0303 15.195,-9.1522 18.453,-7.815 l -2.4103,1.7512 z" />
      <path
         id="path3668"
         style="color:#000000;fill:#000000;stroke:#331a00;stroke-width:2;stroke-opacity:1"
         d="m 214.32,422.48 c 10.124,10.79 19.187,22.651 30.48,32.265 4.6849,4.3526 -3.8795,7.2545 -4.2151,1.162 -10.92,-9.415 -19.535,-21.124 -29.669,-31.341 1.1347,-0.69533 2.2694,-1.3907 3.404,-2.086 z" />
      <path
         id="path3670"
         style="color:#000000;fill:#000000;stroke:#331a00;stroke-width:2;stroke-opacity:1"
         d="m 240.78,425.69 c -8.0268,7.5552 -17.969,13.122 -24.691,21.964 -0.3697,4.0065 -9.616,9.6592 -4.3193,2.7953 5.9022,-9.5559 16.436,-14.734 24.328,-22.444 1.2081,-1.3191 3.1301,-1.5485 4.6819,-2.3158 z" />
      <path
         id="path3674"
         style="color:#000000;fill:#000000;stroke:#331a00;stroke-width:2;stroke-opacity:1"
         d="m 161.33,483.96 c -3.3093,0.6586 -8.0703,2.8198 -6.9305,2.3922 -3.168,1.8711 -3.1459,1.6422 -1.7059,1.2668 -8.8352,5.0023 -13.904,21.166 -4.8826,27.966 5.1498,5.1076 20.556,4.5896 20.602,3.424 -2.7514,1.744 5.1342,-5.6148 3.993,-9.0783 2.3372,-9.6919 -6.4922,-17.444 -13.334,-22.61 -9.3838,-0.7168 5.7907,-5.7532 7.1791,0.82526 7.5813,6.0978 13.283,16.119 8.1327,25.646 -4.7116,8.0949 -15.874,11.053 -24.082,6.5832 -12.446,-2.0154 -12.754,-17.107 -7.0673,-25.792 3.7953,-6.1632 17.772,-13.094 20.072,-12.11 -0.65893,0.49557 -1.3179,0.99115 -1.9768,1.4867 z" />
      <path
         id="path3676"
         style="color:#000000;fill:#000000;stroke:#331a00;stroke-width:2;stroke-opacity:1"
         d="m 156.82,423.18 c 13.997,8.0274 24.126,20.941 35.501,32.067 -5.0023,5.1446 -8.1484,-4.5391 -12.174,-7.0382 -7.8904,-8.6046 -16.21,-17.311 -26.646,-22.805 1.1062,-0.74112 2.2125,-1.4822 3.3187,-2.2234 z" />
      <path
         id="path3678"
         style="color:#000000;fill:#331a00;fill-opacity:1;stroke:#331a00;stroke-width:2;stroke-opacity:1"
         d="m 189.24,422.86 c -7.959,10.161 -16.78,19.562 -26.069,28.517 -1.2818,3.5348 -13.126,11.787 -6.1696,4.3785 9.3163,-10.012 19.514,-19.264 27.705,-30.302 0.93428,-1.594 3.0327,-1.7455 4.5343,-2.5933 z" />
      <path
         id="path3680"
         style="color:#000000;fill:#000000;stroke:#331a00;stroke-width:2;stroke-opacity:1"
         d="m 276.63,422.49 c -2.9804,1.7381 -4.475,2.4173 -3.4614,1.9478 -1.7468,1.1225 -8.254,4.4881 -3.0361,1.7356 -10.123,6.3242 -6.9032,19.308 3.2697,23.417 6.5332,2.8381 14.598,3.4411 20.913,-0.45179 -6.6426,4.9498 5.6612,-5.5344 1.3779,-9.8077 -3.4717,-8.8869 -13.8,-12.392 -22.61,-12.924 -8.5684,-0.74035 6.0256,-4.2911 8.9977,-1.4149 8.5579,1.3893 19.664,8.4967 17.132,18.584 -3.1792,8.3052 -14.185,11.986 -22.422,10.097 -8.8931,-0.83788 -21.053,-10.628 -15.125,-20.264 1.2682,-3.8446 9.3084,-9.0342 10.137,-8.8952 -3.7173,2.427 15.162,-9.4059 4.8266,-2.0245 z" />
    </g>
  </g>
  <metadata
     id="metadata1">
    <rdf:RDF>
      <cc:Work>
        <dc:format>image/svg+xml</dc:format>
        <dc:type
           rdf:resource="http://purl.org/dc/dcmitype/StillImage" />
        <cc:license
           rdf:resource="http://creativecommons.org/publicdomain/zero/1.0/" />
        <dc:publisher>
          <cc:Agent
             rdf:about="http://openclipart.org/">
            <dc:title>Openclipart</dc:title>
          </cc:Agent>
        </dc:publisher>
        <dc:title>Tic Tac Toe</dc:title>
        <dc:date>2010-08-07T16:47:15</dc:date>
        <dc:description>A game of tic-tac-toe in progress.</dc:description>
        <dc:source>https://openclipart.org/detail/78415/tic-tac-toe-by-mazeo</dc:source>
        <dc:creator>
          <cc:Agent>
            <dc:title>mazeo</dc:title>
          </cc:Agent>
        </dc:creator>
        <dc:subject>
          <rdf:Bag>
            <rdf:li>game</rdf:li>
            <rdf:li>games</rdf:li>
            <rdf:li>tic tac toe</rdf:li>
            <rdf:li>tic-tac-toe</rdf:li>
            <rdf:li>tick tack toe</rdf:li>
            <rdf:li>tick-tack-toe</rdf:li>
          </rdf:Bag>
        </dc:subject>
      </cc:Work>
      <cc:License
         rdf:about="http://creativecommons.org/publicdomain/zero/1.0/">
        <cc:permits
           rdf:resource="http://creativecommons.org/ns#Reproduction" />
        <cc:permits
           rdf:resource="http://creativecommons.org/ns#Distribution" />
        <cc:permits
           rdf:resource="http://creativecommons.org/ns#DerivativeWorks" />
      </cc:License>
    </rdf:RDF>
  </metadata>
</svg>
